# xmcd
#
# Track frame offsets:
#	150
#	13326
#	29627
#	44983
#	60719
#	77580
#	96030
#	111490
#	126425
#	141615
#	152990
#
# Disc length: 2239 seconds
#
# Revision: 1
# Processed by: cddbd v1.5.2PL0 Copyright (c) Steve Scherf et al.
# Submitted via: audiograbber 1.83.01
#
DISCID=ab08bd0b
DTITLE=Bellamy Brothers - Greatest Hits Vol. 3
DYEAR=1989
DGENRE=Country
TTITLE0=Hillbilly Hell
TTITLE1=Crazy From The Heart
TTITLE2=The Center Of My Universe
TTITLE3=Kids Of The Baby Boom
TTITLE4=Santa Fe
TTITLE5=I'll Give You All My Love Tonight
TTITLE6=You'll Never Be Sorry
TTITLE7=Rebels Without A Clue
TTITLE8=Big Love
TTITLE9=Country Rap
TTITLE10=You're My Favorite Star (Live)
EXTD=
EXTT0=
EXTT1=
EXTT2=
EXTT3=
EXTT4=
EXTT5=
EXTT6=
EXTT7=
EXTT8=
EXTT9=
EXTT10=
PLAYORDER=
